<svg id="visual" viewBox="0 0 3840 2160" width="3840" height="2160" xmlns="http://www.w3.org/2000/svg" xmlns:xlink="http://www.w3.org/1999/xlink" version="1.1"><path d="M0 2061L91.5 2046.8C183 2032.7 366 2004.3 548.8 1995.7C731.7 1987 914.3 1998 1097.2 2014.7C1280 2031.3 1463 2053.7 1645.8 2055.8C1828.7 2058 2011.3 2040 2194.2 2034.5C2377 2029 2560 2036 2742.8 2027.3C2925.7 2018.7 3108.3 1994.3 3291.2 1999.8C3474 2005.3 3657 2040.7 3748.5 2058.3L3840 2076L3840 2161L3748.5 2161C3657 2161 3474 2161 3291.2 2161C3108.3 2161 2925.7 2161 2742.8 2161C2560 2161 2377 2161 2194.2 2161C2011.3 2161 1828.7 2161 1645.8 2161C1463 2161 1280 2161 1097.2 2161C914.3 2161 731.7 2161 548.8 2161C366 2161 183 2161 91.5 2161L0 2161Z" fill="#2f2f2f"></path><path d="M0 2112L91.5 2107.8C183 2103.7 366 2095.3 548.8 2084.8C731.7 2074.3 914.3 2061.7 1097.2 2065.2C1280 2068.7 1463 2088.3 1645.8 2091.2C1828.7 2094 2011.3 2080 2194.2 2070C2377 2060 2560 2054 2742.8 2053C2925.7 2052 3108.3 2056 3291.2 2066.3C3474 2076.7 3657 2093.3 3748.5 2101.7L3840 2110L3840 2161L3748.5 2161C3657 2161 3474 2161 3291.2 2161C3108.3 2161 2925.7 2161 2742.8 2161C2560 2161 2377 2161 2194.2 2161C2011.3 2161 1828.7 2161 1645.8 2161C1463 2161 1280 2161 1097.2 2161C914.3 2161 731.7 2161 548.8 2161C366 2161 183 2161 91.5 2161L0 2161Z" fill="#222222"></path><path d="M0 2132L91.5 2132.8C183 2133.7 366 2135.3 548.8 2130.8C731.7 2126.3 914.3 2115.7 1097.2 2110.3C1280 2105 1463 2105 1645.8 2102.5C1828.7 2100 2011.3 2095 2194.2 2099.7C2377 2104.3 2560 2118.7 2742.8 2122.5C2925.7 2126.3 3108.3 2119.7 3291.2 2108.5C3474 2097.3 3657 2081.7 3748.5 2073.8L3840 2066L3840 2161L3748.5 2161C3657 2161 3474 2161 3291.2 2161C3108.3 2161 2925.7 2161 2742.8 2161C2560 2161 2377 2161 2194.2 2161C2011.3 2161 1828.7 2161 1645.8 2161C1463 2161 1280 2161 1097.2 2161C914.3 2161 731.7 2161 548.8 2161C366 2161 183 2161 91.5 2161L0 2161Z" fill="#161616"></path></svg>