<svg id="visual" viewBox="0 0 3840 2160" width="3840" height="2160" xmlns="http://www.w3.org/2000/svg" xmlns:xlink="http://www.w3.org/1999/xlink" version="1.1"><path d="M0 1938L106.7 1926.8C213.3 1915.7 426.7 1893.3 640 1881.3C853.3 1869.3 1066.7 1867.7 1280 1870C1493.3 1872.3 1706.7 1878.7 1920 1888C2133.3 1897.3 2346.7 1909.7 2560 1908.2C2773.3 1906.7 2986.7 1891.3 3200 1875.5C3413.3 1859.7 3626.7 1843.3 3733.3 1835.2L3840 1827L3840 2161L3733.3 2161C3626.7 2161 3413.3 2161 3200 2161C2986.7 2161 2773.3 2161 2560 2161C2346.7 2161 2133.3 2161 1920 2161C1706.7 2161 1493.3 2161 1280 2161C1066.7 2161 853.3 2161 640 2161C426.7 2161 213.3 2161 106.7 2161L0 2161Z" fill="#2f2f2f"></path><path d="M0 1965L106.7 1961.2C213.3 1957.3 426.7 1949.7 640 1952.3C853.3 1955 1066.7 1968 1280 1970.5C1493.3 1973 1706.7 1965 1920 1955.8C2133.3 1946.7 2346.7 1936.3 2560 1941.3C2773.3 1946.3 2986.7 1966.7 3200 1972.5C3413.3 1978.3 3626.7 1969.7 3733.3 1965.3L3840 1961L3840 2161L3733.3 2161C3626.7 2161 3413.3 2161 3200 2161C2986.7 2161 2773.3 2161 2560 2161C2346.7 2161 2133.3 2161 1920 2161C1706.7 2161 1493.3 2161 1280 2161C1066.7 2161 853.3 2161 640 2161C426.7 2161 213.3 2161 106.7 2161L0 2161Z" fill="#222222"></path><path d="M0 2092L106.7 2087.8C213.3 2083.7 426.7 2075.3 640 2070.3C853.3 2065.3 1066.7 2063.7 1280 2066.2C1493.3 2068.7 1706.7 2075.3 1920 2079.3C2133.3 2083.3 2346.7 2084.7 2560 2075.8C2773.3 2067 2986.7 2048 3200 2049.2C3413.3 2050.3 3626.7 2071.7 3733.3 2082.3L3840 2093L3840 2161L3733.3 2161C3626.7 2161 3413.3 2161 3200 2161C2986.7 2161 2773.3 2161 2560 2161C2346.7 2161 2133.3 2161 1920 2161C1706.7 2161 1493.3 2161 1280 2161C1066.7 2161 853.3 2161 640 2161C426.7 2161 213.3 2161 106.7 2161L0 2161Z" fill="#161616"></path></svg>