<svg id="visual" viewBox="0 0 3840 2160" width="3840" height="2160" xmlns="http://www.w3.org/2000/svg" xmlns:xlink="http://www.w3.org/1999/xlink" version="1.1"><path d="M0 1969L160 1974.5C320 1980 640 1991 960 1994.3C1280 1997.7 1600 1993.3 1920 2012.3C2240 2031.3 2560 2073.7 2880 2074.2C3200 2074.7 3520 2033.3 3680 2012.7L3840 1992L3840 2161L3680 2161C3520 2161 3200 2161 2880 2161C2560 2161 2240 2161 1920 2161C1600 2161 1280 2161 960 2161C640 2161 320 2161 160 2161L0 2161Z" fill="#161616" stroke-linecap="round" stroke-linejoin="miter"></path></svg>